:SAMPLES-PER-SECOND 30
:FULLY-SPECIFIED
:DEGREES
264
root  -30.1306 32.7838 26.0951 11.8051 4.32617 2.55556
RightUpLeg  -36.635 5.96825 -22.6266
RightLeg  18.4953 -11.8266 -3.09922
RightFoot  -4.07257 0.0215092 0.98267
RightToes  -20.7395 -0.0856191 -0.182741
Spine  8.68355 -0.998756 0.103273
Spine1  16.9505 -2.41474 0.450651
HEad  8.07247 46.8671 -23.8839
LeftShoulder1  0 -2.42657e-020 -4.95415e-022
LeftArm  -16.9135 2.65208 -90.6515
LeftForeArm  45.0369 -38.6514 -8.08963
LeftHand  0.358434 -12.4962 -3.64491
RightShoulder  0 2.42657e-020 1.07489e-018
RightArm  -32.707 -12.6001 71.2893
RightForeArm  44.4667 22.5821 4.18375
RightHand  -0.145968 24.7303 -0.295886
LeftUpLeg  -9.35667 -16.0808 4.5387
LeftLeg  26.5409 -10.1242 -4.24135
LeftFoot  -7.74929 0.0923876 1.36401
LeftToes  -23.6269 1.28829e-006 1.15665e-007
265
root  -31.4783 32.1683 27.6376 11.7945 7.53043 1.46848
RightUpLeg  -36.368 4.37983 -22.0063
RightLeg  18.0514 -10.858 -2.76009
RightFoot  -5.54498 0.0400083 1.20385
RightToes  -19.9057 -0.0809337 -0.176064
Spine  8.39278 -0.939639 0.80055
Spine1  16.3099 -2.5264 2.13985
HEad  6.20461 46.2873 -23.5779
LeftShoulder1  0 -2.42657e-020 -4.95415e-022
LeftArm  -15.9743 2.0504 -93.4003
LeftForeArm  45.2979 -38.292 -7.98436
LeftHand  0.334155 -12.2636 -3.48158
RightShoulder  0 2.42657e-020 1.07489e-018
RightArm  -38.3908 -16.2412 70.4492
RightForeArm  44.3718 20.4156 3.74175
RightHand  -0.134326 24.1823 -0.257094
LeftUpLeg  -9.98483 -14.9284 8.33089
LeftLeg  31.2009 -11.1699 -5.76689
LeftFoot  -9.86796 0.175947 2.0379
LeftToes  -29.9839 1.28829e-006 1.15665e-007
266
root  -33.0747 31.2249 29.3867 10.8519 9.30637 -0.873184
RightUpLeg  -36.8945 -0.920822 -15.9543
RightLeg  23.0049 -5.92626 -2.07515
RightFoot  3.04054 0.0193262 -0.350554
RightToes  -44.6255 -0.256447 -0.339732
Spine  8.34375 -0.735106 1.56688
Spine1  16.1297 -2.2857 3.77262
HEad  3.72691 46.6891 -23.4334
LeftShoulder1  0 -2.42657e-020 -4.95415e-022
LeftArm  -17.7672 2.33211 -95.6299
LeftForeArm  45.8439 -38.3425 -7.99813
LeftHand  0.271788 -12.033 -2.94994
RightShoulder  0 2.42657e-020 1.07489e-018
RightArm  -45.1871 -17.1738 69.8643
RightForeArm  49.5251 16.274 2.92258
RightHand  -0.105364 24.5233 -0.114816
LeftUpLeg  -10.0562 -12.4447 13.5
LeftLeg  37.5126 -10.4726 -6.95048
LeftFoot  -12.133 0.265132 2.49432
LeftToes  -40.5952 1.28829e-006 1.15665e-007
267
root  -34.6334 30.171 30.9491 10.3086 7.49298 -2.46994
RightUpLeg  -44.8752 -3.86194 -10.51
RightLeg  38.2459 1.95015 1.32339
RightFoot  10.4503 0.01098 0.257467
RightToes  -51.2797 -0.314261 -0.369589
Spine  8.23494 0.303995 1.56825
Spine1  15.907 -0.261311 3.916
HEad  0.8282 48.1109 -24.2387
LeftShoulder1  0 -2.42657e-020 -4.95415e-022
LeftArm  -19.9971 2.82528 -96.5283
LeftForeArm  45.9608 -37.9998 -7.89881
LeftHand  0.105443 -12.0657 -1.36843
RightShoulder  0 2.42657e-020 1.07489e-018
RightArm  -52.9727 -16.018 69.3317
RightForeArm  58.7935 10.8735 1.89864
RightHand  -0.33387 24.1705 -1.18952
LeftUpLeg  -10.8216 -8.84975 17.0107
LeftLeg  46.5681 -7.38856 -6.81786
LeftFoot  -12.6265 0.218794 1.97742
LeftToes  -44.6436 1.28829e-006 1.15665e-007
268
root  -36.1456 29.3108 32.5133 10.2708 6.4592 -7.00819
RightUpLeg  -49.3259 -3.79832 -2.80437
RightLeg  48.5633 2.1799 2.12737
RightFoot  4.22554 0.015014 -0.0294205
RightToes  -50.8651 -0.310561 -0.367926
Spine  7.82933 1.32245 2.86656
Spine1  14.9525 1.51725 6.47485
HEad  -0.604063 50.0285 -24.0763
LeftShoulder1  0 -2.42657e-020 -4.95415e-022
LeftArm  -21.0772 3.80854 -97.9546
LeftForeArm  46.1656 -36.9077 -7.58888
LeftHand  -0.105764 -11.7196 0.660932
RightShoulder  0 2.42657e-020 1.07489e-018
RightArm  -60.7853 -14.2281 66.6369
RightForeArm  70.2698 5.15631 0.847631
RightHand  -0.644996 21.5773 -3.01474
LeftUpLeg  -13.9652 -4.50069 23.73
LeftLeg  58.0995 -4.30927 -6.00516
LeftFoot  -11.9721 0.117411 1.11967
LeftToes  -34.661 1.28829e-006 1.15665e-007
